# xmcd
#
# Track frame offsets:
#	150
#	15223
#	30759
#	47680
#	65861
#	89464
#	104275
#	123445
#	139458
#	155075
#	171042
#	187268
#	200133
#	219693
#
# Disc length: 3154 seconds
#
# Revision: 2
# Processed by: cddbd v1.5.2PL0 Copyright (c) Steve Scherf et al.
# Submitted via: EasyCDDAExtractor 15.3.0.1
#
DISCID=cd0c500e
DTITLE=Ana Gabriel - Mis Favoritas
DYEAR=2010
DGENRE=Latin
TTITLE0=Ahora
TTITLE1=Pecado Original
TTITLE2=Y Aqui Estoy
TTITLE3=Hice Bien Quererte (Lambada)
TTITLE4=Eres Todo En Mi (You're My Everything)
TTITLE5=Con Las Alas Atadas (Huapango)
TTITLE6=Cosas Del Amor (Duo Con Vikki Carr)
TTITLE7=Fue En Un Cafe
TTITLE8=Flores Negras
TTITLE9=Quien Como Tu
TTITLE10=Tu Y Yo (Duo Con Alberto Fuestes)
TTITLE11=Mi Gusto Es
TTITLE12=Huelo A Soledad (A Capella)
TTITLE13=Simplemente Amigos
EXTD=
EXTT0=
EXTT1=
EXTT2=
EXTT3=
EXTT4=
EXTT5=
EXTT6=
EXTT7=
EXTT8=
EXTT9=
EXTT10=
EXTT11=
EXTT12=
EXTT13=
PLAYORDER=
